<svg width="875" height="405" viewBox="0 0 875 405" fill="none" xmlns="http://www.w3.org/2000/svg">
<rect x="124.308" width="155.385" height="405" rx="20" fill="#313A44"/>
<rect y="124.615" width="404" height="155.769" rx="20" fill="#313A44"/>
<rect x="186.462" y="101.25" width="31.0769" height="233.654" rx="15.5385" fill="#F5F3ED"/>
<rect x="85.4619" y="186.923" width="233.077" height="31.1538" rx="15.5769" fill="#F5F3ED"/>
<path d="M379.264 47.896C373.888 47.896 369.824 49.08 367.072 51.448C364.32 53.752 362.944 57.24 362.944 61.912V66.04H390.592V78.52H362.944V103H347.392V62.008C347.392 53.368 350.08 46.648 355.456 41.848C360.896 37.048 368.48 34.648 378.208 34.648C382.048 34.648 385.664 35.064 389.056 35.896C392.448 36.664 395.392 37.816 397.888 39.352L393.088 51.64C389.248 49.144 384.64 47.896 379.264 47.896ZM455.484 51.352V103H441.18V97.048C437.468 101.528 432.092 103.768 425.052 103.768C420.188 103.768 415.772 102.68 411.804 100.504C407.9 98.328 404.828 95.224 402.588 91.192C400.348 87.16 399.228 82.488 399.228 77.176C399.228 71.864 400.348 67.192 402.588 63.16C404.828 59.128 407.9 56.024 411.804 53.848C415.772 51.672 420.188 50.584 425.052 50.584C431.644 50.584 436.796 52.664 440.508 56.824V51.352H455.484ZM427.644 91.48C431.42 91.48 434.556 90.2 437.052 87.64C439.548 85.016 440.796 81.528 440.796 77.176C440.796 72.824 439.548 69.368 437.052 66.808C434.556 64.184 431.42 62.872 427.644 62.872C423.804 62.872 420.636 64.184 418.14 66.808C415.644 69.368 414.396 72.824 414.396 77.176C414.396 81.528 415.644 85.016 418.14 87.64C420.636 90.2 423.804 91.48 427.644 91.48ZM483.654 58.168C485.446 55.672 487.846 53.784 490.854 52.504C493.926 51.224 497.446 50.584 501.414 50.584V64.408C499.75 64.28 498.63 64.216 498.054 64.216C493.766 64.216 490.406 65.432 487.974 67.864C485.542 70.232 484.326 73.816 484.326 78.616V103H469.35V51.352H483.654V58.168ZM576.462 50.584C582.926 50.584 588.046 52.504 591.822 56.344C595.662 60.12 597.582 65.816 597.582 73.432V103H582.606V75.736C582.606 71.64 581.742 68.6 580.014 66.616C578.35 64.568 575.95 63.544 572.814 63.544C569.294 63.544 566.51 64.696 564.462 67C562.414 69.24 561.39 72.6 561.39 77.08V103H546.414V75.736C546.414 67.608 543.15 63.544 536.622 63.544C533.166 63.544 530.414 64.696 528.366 67C526.318 69.24 525.294 72.6 525.294 77.08V103H510.318V51.352H524.622V57.304C526.542 55.128 528.878 53.464 531.63 52.312C534.446 51.16 537.518 50.584 540.846 50.584C544.494 50.584 547.79 51.32 550.734 52.792C553.678 54.2 556.046 56.28 557.838 59.032C559.95 56.344 562.606 54.264 565.806 52.792C569.07 51.32 572.622 50.584 576.462 50.584ZM663.984 51.352V103H649.68V97.048C645.968 101.528 640.592 103.768 633.552 103.768C628.688 103.768 624.272 102.68 620.304 100.504C616.4 98.328 613.328 95.224 611.088 91.192C608.848 87.16 607.728 82.488 607.728 77.176C607.728 71.864 608.848 67.192 611.088 63.16C613.328 59.128 616.4 56.024 620.304 53.848C624.272 51.672 628.688 50.584 633.552 50.584C640.144 50.584 645.296 52.664 649.008 56.824V51.352H663.984ZM636.144 91.48C639.92 91.48 643.056 90.2 645.552 87.64C648.048 85.016 649.296 81.528 649.296 77.176C649.296 72.824 648.048 69.368 645.552 66.808C643.056 64.184 639.92 62.872 636.144 62.872C632.304 62.872 629.136 64.184 626.64 66.808C624.144 69.368 622.896 72.824 622.896 77.176C622.896 81.528 624.144 85.016 626.64 87.64C629.136 90.2 632.304 91.48 636.144 91.48ZM702.81 103.768C697.306 103.768 692.346 102.648 687.93 100.408C683.578 98.104 680.154 94.936 677.658 90.904C675.226 86.872 674.01 82.296 674.01 77.176C674.01 72.056 675.226 67.48 677.658 63.448C680.154 59.416 683.578 56.28 687.93 54.04C692.346 51.736 697.306 50.584 702.81 50.584C708.25 50.584 712.986 51.736 717.018 54.04C721.114 56.28 724.09 59.512 725.946 63.736L714.33 69.976C711.642 65.24 707.77 62.872 702.714 62.872C698.81 62.872 695.578 64.152 693.018 66.712C690.458 69.272 689.178 72.76 689.178 77.176C689.178 81.592 690.458 85.08 693.018 87.64C695.578 90.2 698.81 91.48 702.714 91.48C707.834 91.48 711.706 89.112 714.33 84.376L725.946 90.712C724.09 94.808 721.114 98.008 717.018 100.312C712.986 102.616 708.25 103.768 702.81 103.768ZM734.568 51.352H749.544V103H734.568V51.352ZM742.056 44.152C739.304 44.152 737.064 43.352 735.336 41.752C733.608 40.152 732.744 38.168 732.744 35.8C732.744 33.432 733.608 31.448 735.336 29.848C737.064 28.248 739.304 27.448 742.056 27.448C744.808 27.448 747.048 28.216 748.776 29.752C750.504 31.288 751.368 33.208 751.368 35.512C751.368 38.008 750.504 40.088 748.776 41.752C747.048 43.352 744.808 44.152 742.056 44.152ZM815.859 51.352V103H801.555V97.048C797.843 101.528 792.467 103.768 785.427 103.768C780.563 103.768 776.147 102.68 772.179 100.504C768.275 98.328 765.203 95.224 762.963 91.192C760.723 87.16 759.603 82.488 759.603 77.176C759.603 71.864 760.723 67.192 762.963 63.16C765.203 59.128 768.275 56.024 772.179 53.848C776.147 51.672 780.563 50.584 785.427 50.584C792.019 50.584 797.171 52.664 800.883 56.824V51.352H815.859ZM788.019 91.48C791.795 91.48 794.931 90.2 797.427 87.64C799.923 85.016 801.171 81.528 801.171 77.176C801.171 72.824 799.923 69.368 797.427 66.808C794.931 64.184 791.795 62.872 788.019 62.872C784.179 62.872 781.011 64.184 778.515 66.808C776.019 69.368 774.771 72.824 774.771 77.176C774.771 81.528 776.019 85.016 778.515 87.64C781.011 90.2 784.179 91.48 788.019 91.48ZM847.101 103.768C842.813 103.768 838.621 103.256 834.525 102.232C830.429 101.144 827.165 99.8 824.733 98.2L829.725 87.448C832.029 88.92 834.813 90.136 838.077 91.096C841.341 91.992 844.541 92.44 847.677 92.44C854.013 92.44 857.181 90.872 857.181 87.736C857.181 86.264 856.317 85.208 854.589 84.568C852.861 83.928 850.205 83.384 846.621 82.936C842.397 82.296 838.909 81.56 836.157 80.728C833.405 79.896 831.005 78.424 828.957 76.312C826.973 74.2 825.98 71.192 825.98 67.288C825.98 64.024 826.909 61.144 828.765 58.648C830.685 56.088 833.437 54.104 837.021 52.696C840.669 51.288 844.957 50.584 849.885 50.584C853.533 50.584 857.149 51 860.733 51.832C864.381 52.6 867.389 53.688 869.757 55.096L864.765 65.752C860.221 63.192 855.261 61.912 849.885 61.912C846.685 61.912 844.285 62.36 842.685 63.256C841.085 64.152 840.285 65.304 840.285 66.712C840.285 68.312 841.149 69.432 842.877 70.072C844.605 70.712 847.357 71.32 851.133 71.896C855.357 72.6 858.813 73.368 861.501 74.2C864.189 74.968 866.525 76.408 868.509 78.52C870.493 80.632 871.485 83.576 871.485 87.352C871.485 90.552 870.525 93.4 868.605 95.896C866.685 98.392 863.869 100.344 860.157 101.752C856.509 103.096 852.157 103.768 847.101 103.768Z" fill="#313A44"/>
<path d="M480.52 146.768V218H466.216V212.048C462.504 216.528 457.128 218.768 450.088 218.768C445.224 218.768 440.808 217.68 436.84 215.504C432.936 213.328 429.864 210.224 427.624 206.192C425.384 202.16 424.264 197.488 424.264 192.176C424.264 186.864 425.384 182.192 427.624 178.16C429.864 174.128 432.936 171.024 436.84 168.848C440.808 166.672 445.224 165.584 450.088 165.584C456.68 165.584 461.832 167.664 465.544 171.824V146.768H480.52ZM452.68 206.48C456.456 206.48 459.592 205.2 462.088 202.64C464.584 200.016 465.832 196.528 465.832 192.176C465.832 187.824 464.584 184.368 462.088 181.808C459.592 179.184 456.456 177.872 452.68 177.872C448.84 177.872 445.672 179.184 443.176 181.808C440.68 184.368 439.432 187.824 439.432 192.176C439.432 196.528 440.68 200.016 443.176 202.64C445.672 205.2 448.84 206.48 452.68 206.48ZM520.397 206.768C523.085 206.768 525.453 206.384 527.501 205.616C529.613 204.784 531.565 203.504 533.357 201.776L541.325 210.416C536.461 215.984 529.357 218.768 520.013 218.768C514.189 218.768 509.037 217.648 504.557 215.408C500.077 213.104 496.621 209.936 494.189 205.904C491.757 201.872 490.541 197.296 490.541 192.176C490.541 187.12 491.725 182.576 494.093 178.544C496.525 174.448 499.821 171.28 503.981 169.04C508.205 166.736 512.941 165.584 518.189 165.584C523.117 165.584 527.597 166.64 531.629 168.752C535.661 170.8 538.861 173.808 541.229 177.776C543.661 181.68 544.877 186.32 544.877 191.696L506.669 199.088C507.757 201.648 509.453 203.568 511.757 204.848C514.125 206.128 517.005 206.768 520.397 206.768ZM518.189 176.912C514.413 176.912 511.341 178.128 508.973 180.56C506.605 182.992 505.357 186.352 505.229 190.64L530.381 185.744C529.677 183.056 528.237 180.912 526.061 179.312C523.885 177.712 521.261 176.912 518.189 176.912ZM632.147 169.616C626.387 166.288 620.211 164.144 613.619 163.184V218H598.067V163.184C591.475 164.144 585.267 166.288 579.443 169.616L574.163 158C578.771 155.248 583.763 153.168 589.139 151.76C594.515 150.352 600.051 149.648 605.747 149.648C611.507 149.648 617.075 150.352 622.451 151.76C627.891 153.168 632.883 155.248 637.427 158L632.147 169.616ZM693.788 166.352V218H679.58V211.856C677.596 214.096 675.228 215.824 672.476 217.04C669.724 218.192 666.748 218.768 663.548 218.768C656.764 218.768 651.388 216.816 647.42 212.912C643.452 209.008 641.468 203.216 641.468 195.536V166.352H656.444V193.328C656.444 201.648 659.932 205.808 666.908 205.808C670.492 205.808 673.372 204.656 675.548 202.352C677.724 199.984 678.812 196.496 678.812 191.888V166.352H693.788ZM721.966 173.168C723.758 170.672 726.158 168.784 729.166 167.504C732.238 166.224 735.758 165.584 739.726 165.584V179.408C738.062 179.28 736.942 179.216 736.366 179.216C732.078 179.216 728.718 180.432 726.286 182.864C723.854 185.232 722.638 188.816 722.638 193.616V218H707.662V166.352H721.966V173.168ZM780.023 165.584C786.423 165.584 791.575 167.504 795.479 171.344C799.447 175.184 801.431 180.88 801.431 188.432V218H786.455V190.736C786.455 186.64 785.559 183.6 783.767 181.616C781.975 179.568 779.383 178.544 775.991 178.544C772.215 178.544 769.207 179.728 766.967 182.096C764.727 184.4 763.607 187.856 763.607 192.464V218H748.631V166.352H762.935V172.4C764.919 170.224 767.383 168.56 770.327 167.408C773.271 166.192 776.503 165.584 780.023 165.584ZM840.144 218.768C834.704 218.768 829.808 217.648 825.456 215.408C821.168 213.104 817.808 209.936 815.376 205.904C812.944 201.872 811.728 197.296 811.728 192.176C811.728 187.056 812.944 182.48 815.376 178.448C817.808 174.416 821.168 171.28 825.456 169.04C829.808 166.736 834.704 165.584 840.144 165.584C845.584 165.584 850.448 166.736 854.736 169.04C859.024 171.28 862.384 174.416 864.816 178.448C867.248 182.48 868.464 187.056 868.464 192.176C868.464 197.296 867.248 201.872 864.816 205.904C862.384 209.936 859.024 213.104 854.736 215.408C850.448 217.648 845.584 218.768 840.144 218.768ZM840.144 206.48C843.984 206.48 847.12 205.2 849.552 202.64C852.048 200.016 853.296 196.528 853.296 192.176C853.296 187.824 852.048 184.368 849.552 181.808C847.12 179.184 843.984 177.872 840.144 177.872C836.304 177.872 833.136 179.184 830.64 181.808C828.144 184.368 826.896 187.824 826.896 192.176C826.896 196.528 828.144 200.016 830.64 202.64C833.136 205.2 836.304 206.48 840.144 206.48Z" fill="#313A44"/>
</svg>
