<svg width="24" height="24" viewBox="0 0 24 24" fill="none" xmlns="http://www.w3.org/2000/svg">
<path d="M11.9999 23.999L11.2959 23.404C9.09393 21.541 1.90894 15.076 1.90894 10.091C1.90894 4.527 6.43594 0 11.9999 0C17.5639 0 22.0909 4.527 22.0909 10.091C22.0909 15.076 14.9059 21.541 12.7039 23.404L11.9999 23.999ZM11.9999 1C6.98694 1 2.90894 5.078 2.90894 10.091C2.90894 14.763 10.4329 21.364 11.9409 22.641L11.9999 22.691L12.0589 22.641C13.5669 21.365 21.0909 14.763 21.0909 10.091C21.0909 5.078 17.0129 1 11.9999 1Z" fill="#1C2126"/>
<path d="M12 14C9.794 14 8 12.206 8 10C8 7.794 9.794 6 12 6C14.206 6 16 7.794 16 10C16 12.206 14.206 14 12 14ZM12 7C10.346 7 9 8.346 9 10C9 11.654 10.346 13 12 13C13.654 13 15 11.654 15 10C15 8.346 13.654 7 12 7Z" fill="#1C2126"/>
</svg>
