<svg width="24" height="24" viewBox="0 0 24 24" fill="none" xmlns="http://www.w3.org/2000/svg">
<g clip-path="url(#clip0_40_16)">
<path d="M20.9499 22.3498L23.9099 19.3898L18.0699 13.5498L14.5899 17.0298C10.9499 15.4898 8.38991 12.9298 6.95991 9.40984L10.4399 5.92984L4.60991 0.0898438L1.64991 3.04984C0.589912 4.10984 -8.7738e-05 5.54984 -8.7738e-05 7.09984C-8.7738e-05 14.5198 9.46991 23.9898 16.8899 23.9898C18.4399 23.9898 19.8799 23.3998 20.9499 22.3398V22.3498ZM0.999912 7.10984C0.999912 5.81984 1.47991 4.63984 2.35991 3.75984L4.60991 1.50984L9.02991 5.92984L5.79991 9.15984L5.91991 9.45984C7.45991 13.4998 10.3599 16.3998 14.5299 18.0698L14.8399 18.1898L18.0799 14.9498L22.4899 19.3898L20.2399 21.6398C19.3699 22.5198 18.1799 22.9998 16.8899 22.9998C10.0599 22.9998 0.999912 13.9398 0.999912 7.10984Z" fill="#1C2126"/>
</g>
<defs>
<clipPath id="clip0_40_16">
<rect width="24" height="24" fill="white" transform="matrix(0 1 -1 0 24 0)"/>
</clipPath>
</defs>
</svg>
